<?xml version="1.0" encoding="UTF-8" standalone="no"?><svg xmlns="http://www.w3.org/2000/svg" xmlns:xlink="http://www.w3.org/1999/xlink" contentScriptType="application/ecmascript" contentStyleType="text/css" height="502px" preserveAspectRatio="none" style="width:1175px;height:502px;" version="1.1" viewBox="0 0 1175 502" width="1175px" zoomAndPan="magnify"><defs/><g><!--class rapporto_scena_del_crimine--><rect fill="#FFFFFF" height="99.2188" id="rapporto_scena_del_crimine" rx="2.5" ry="2.5" style="stroke: #2688D4; stroke-width: 1.5;" width="207" x="6" y="392"/><ellipse cx="21" cy="408" fill="#FFFFFF" rx="11" ry="11" style="stroke: #2688D4; stroke-width: 1.0;"/><path d="M21.8438,414.75 L19.3906,414.75 L19.3906,404.5 L16.25,404.5 L16.25,402.3594 L24.9844,402.3594 L24.9844,404.5 L21.8438,404.5 L21.8438,414.75 Z "/><text fill="#000000" font-family="sans-serif" font-size="12" lengthAdjust="spacingAndGlyphs" textLength="175" x="35" y="412.1543">rapporto_scena_del_crimine</text><line style="stroke: #2688D4; stroke-width: 1.5;" x1="7" x2="212" y1="424" y2="424"/><path d="M16.6667,431.638 C15.1478,431.638 13.9167,432.8691 13.9167,434.388 C13.9167,435.9069 15.1478,437.138 16.6667,437.138 C18.1856,437.138 19.4167,435.9069 19.4167,434.388 C19.4167,432.8691 18.1856,431.638 16.6667,431.638 " fill="#EFEFEF" style="stroke: ; stroke-width: 0.0; stroke-dasharray: ;"/><text fill="#000000" font-family="sans-serif" font-size="11" lengthAdjust="spacingAndGlyphs" textLength="89" x="25.3333" y="438.2104">data   :INTEGER</text><path d="M16.6667,444.4427 C15.1478,444.4427 13.9167,445.6738 13.9167,447.1927 C13.9167,448.7116 15.1478,449.9427 16.6667,449.9427 C18.1856,449.9427 19.4167,448.7116 19.4167,447.1927 C19.4167,445.6738 18.1856,444.4427 16.6667,444.4427 " fill="#EFEFEF" style="stroke: ; stroke-width: 0.0; stroke-dasharray: ;"/><text fill="#000000" font-family="sans-serif" font-size="11" lengthAdjust="spacingAndGlyphs" textLength="65" x="25.3333" y="451.0151">tipo   :TEXT</text><path d="M16.6667,457.2474 C15.1478,457.2474 13.9167,458.4785 13.9167,459.9974 C13.9167,461.5163 15.1478,462.7474 16.6667,462.7474 C18.1856,462.7474 19.4167,461.5163 19.4167,459.9974 C19.4167,458.4785 18.1856,457.2474 16.6667,457.2474 " fill="#EFEFEF" style="stroke: ; stroke-width: 0.0; stroke-dasharray: ;"/><text fill="#000000" font-family="sans-serif" font-size="11" lengthAdjust="spacingAndGlyphs" textLength="108" x="25.3333" y="463.8198">descrizione   :TEXT</text><path d="M16.6667,470.0521 C15.1478,470.0521 13.9167,471.2832 13.9167,472.8021 C13.9167,474.321 15.1478,475.5521 16.6667,475.5521 C18.1856,475.5521 19.4167,474.321 19.4167,472.8021 C19.4167,471.2832 18.1856,470.0521 16.6667,470.0521 " fill="#EFEFEF" style="stroke: ; stroke-width: 0.0; stroke-dasharray: ;"/><text fill="#000000" font-family="sans-serif" font-size="11" lengthAdjust="spacingAndGlyphs" textLength="75" x="25.3333" y="476.6245">luogo   :TEXT</text><line style="stroke: #2688D4; stroke-width: 1.5;" x1="7" x2="212" y1="483.2188" y2="483.2188"/><!--class patente--><rect fill="#FFFFFF" height="163.2422" id="patente" rx="2.5" ry="2.5" style="stroke: #2688D4; stroke-width: 1.5;" width="177.3333" x="987" y="21"/><ellipse cx="1046.4167" cy="37" fill="#FFFFFF" rx="11" ry="11" style="stroke: #2688D4; stroke-width: 1.0;"/><path d="M1047.2604,43.75 L1044.8073,43.75 L1044.8073,33.5 L1041.6667,33.5 L1041.6667,31.3594 L1050.401,31.3594 L1050.401,33.5 L1047.2604,33.5 L1047.2604,43.75 Z "/><text fill="#000000" font-family="sans-serif" font-size="12" lengthAdjust="spacingAndGlyphs" textLength="50" x="1066.9167" y="41.1543">patente</text><line style="stroke: #2688D4; stroke-width: 1.5;" x1="988" x2="1163.3333" y1="53" y2="53"/><path d="M999.0417,59.7214 C997.7767,59.7214 996.75,60.748 996.75,62.013 C996.75,62.1597 996.7803,62.2853 996.8078,62.4145 L994,65.2223 L994,67.0556 L996.75,67.0556 L996.75,65.2223 L998.5833,65.2223 L998.5833,64.3056 L998.6411,64.2479 C998.7694,64.2754 998.895,64.3056 999.0426,64.3056 C1000.3076,64.3056 1001.3343,63.2789 1001.3343,62.0139 C1001.3343,60.7489 1000.3076,59.7223 999.0426,59.7223 M999.5009,60.6389 C1000.0051,60.6389 1000.4176,61.0514 1000.4176,61.5556 C1000.4176,62.0598 1000.0051,62.4723 999.5009,62.4723 C998.9968,62.4723 998.5843,62.0598 998.5843,61.5556 C998.5843,61.0514 998.9968,60.6389 999.5009,60.6389 " fill="#B8861B" style="stroke: ; stroke-width: 0.0; stroke-dasharray: ;"/><text fill="#000000" font-family="sans-serif" font-size="11" font-weight="bold" lengthAdjust="spacingAndGlyphs" textLength="12" x="1006.3333" y="67.2104">id</text><text fill="#000000" font-family="sans-serif" font-size="11" lengthAdjust="spacingAndGlyphs" textLength="52" x="1030.3333" y="67.2104">:INTEGER</text><path d="M997.6667,73.4427 C996.1478,73.4427 994.9167,74.6738 994.9167,76.1927 C994.9167,77.7116 996.1478,78.9427 997.6667,78.9427 C999.1856,78.9427 1000.4167,77.7116 1000.4167,76.1927 C1000.4167,74.6738 999.1856,73.4427 997.6667,73.4427 " fill="#EFEFEF" style="stroke: ; stroke-width: 0.0; stroke-dasharray: ;"/><text fill="#000000" font-family="sans-serif" font-size="11" lengthAdjust="spacingAndGlyphs" textLength="82" x="1006.3333" y="80.0151">eta   :INTEGER</text><path d="M997.6667,86.2474 C996.1478,86.2474 994.9167,87.4785 994.9167,88.9974 C994.9167,90.5163 996.1478,91.7474 997.6667,91.7474 C999.1856,91.7474 1000.4167,90.5163 1000.4167,88.9974 C1000.4167,87.4785 999.1856,86.2474 997.6667,86.2474 " fill="#EFEFEF" style="stroke: ; stroke-width: 0.0; stroke-dasharray: ;"/><text fill="#000000" font-family="sans-serif" font-size="11" lengthAdjust="spacingAndGlyphs" textLength="102" x="1006.3333" y="92.8198">altezza   :INTEGER</text><path d="M997.6667,99.0521 C996.1478,99.0521 994.9167,100.2832 994.9167,101.8021 C994.9167,103.321 996.1478,104.5521 997.6667,104.5521 C999.1856,104.5521 1000.4167,103.321 1000.4167,101.8021 C1000.4167,100.2832 999.1856,99.0521 997.6667,99.0521 " fill="#EFEFEF" style="stroke: ; stroke-width: 0.0; stroke-dasharray: ;"/><text fill="#000000" font-family="sans-serif" font-size="11" lengthAdjust="spacingAndGlyphs" textLength="114" x="1006.3333" y="105.6245">colore_occhi   :TEXT</text><path d="M997.6667,111.8568 C996.1478,111.8568 994.9167,113.0879 994.9167,114.6068 C994.9167,116.1257 996.1478,117.3568 997.6667,117.3568 C999.1856,117.3568 1000.4167,116.1257 1000.4167,114.6068 C1000.4167,113.0879 999.1856,111.8568 997.6667,111.8568 " fill="#EFEFEF" style="stroke: ; stroke-width: 0.0; stroke-dasharray: ;"/><text fill="#000000" font-family="sans-serif" font-size="11" lengthAdjust="spacingAndGlyphs" textLength="121" x="1006.3333" y="118.4292">colore_capelli   :TEXT</text><path d="M997.6667,124.6615 C996.1478,124.6615 994.9167,125.8925 994.9167,127.4115 C994.9167,128.9304 996.1478,130.1615 997.6667,130.1615 C999.1856,130.1615 1000.4167,128.9304 1000.4167,127.4115 C1000.4167,125.8925 999.1856,124.6615 997.6667,124.6615 " fill="#EFEFEF" style="stroke: ; stroke-width: 0.0; stroke-dasharray: ;"/><text fill="#000000" font-family="sans-serif" font-size="11" lengthAdjust="spacingAndGlyphs" textLength="79" x="1006.3333" y="131.2339">sesso   :TEXT</text><path d="M997.6667,137.4661 C996.1478,137.4661 994.9167,138.6972 994.9167,140.2161 C994.9167,141.7351 996.1478,142.9661 997.6667,142.9661 C999.1856,142.9661 1000.4167,141.7351 1000.4167,140.2161 C1000.4167,138.6972 999.1856,137.4661 997.6667,137.4661 " fill="#EFEFEF" style="stroke: ; stroke-width: 0.0; stroke-dasharray: ;"/><text fill="#000000" font-family="sans-serif" font-size="11" lengthAdjust="spacingAndGlyphs" textLength="74" x="1006.3333" y="144.0386">targa   :TEXT</text><path d="M997.6667,150.2708 C996.1478,150.2708 994.9167,151.5019 994.9167,153.0208 C994.9167,154.5398 996.1478,155.7708 997.6667,155.7708 C999.1856,155.7708 1000.4167,154.5398 1000.4167,153.0208 C1000.4167,151.5019 999.1856,150.2708 997.6667,150.2708 " fill="#EFEFEF" style="stroke: ; stroke-width: 0.0; stroke-dasharray: ;"/><text fill="#000000" font-family="sans-serif" font-size="11" lengthAdjust="spacingAndGlyphs" textLength="152" x="1006.3333" y="156.8433">costruttore_veicolo   :TEXT</text><path d="M997.6667,163.0755 C996.1478,163.0755 994.9167,164.3066 994.9167,165.8255 C994.9167,167.3444 996.1478,168.5755 997.6667,168.5755 C999.1856,168.5755 1000.4167,167.3444 1000.4167,165.8255 C1000.4167,164.3066 999.1856,163.0755 997.6667,163.0755 " fill="#EFEFEF" style="stroke: ; stroke-width: 0.0; stroke-dasharray: ;"/><text fill="#000000" font-family="sans-serif" font-size="11" lengthAdjust="spacingAndGlyphs" textLength="134" x="1006.3333" y="169.6479">modello_veicolo   :TEXT</text><line style="stroke: #2688D4; stroke-width: 1.5;" x1="988" x2="1163.3333" y1="176.2422" y2="176.2422"/><!--class facebook_ingresso_eventi--><rect fill="#FFFFFF" height="99.2188" id="facebook_ingresso_eventi" rx="2.5" ry="2.5" style="stroke: #2688D4; stroke-width: 1.5;" width="194" x="341" y="8"/><ellipse cx="356" cy="24" fill="#FFFFFF" rx="11" ry="11" style="stroke: #2688D4; stroke-width: 1.0;"/><path d="M356.8438,30.75 L354.3906,30.75 L354.3906,20.5 L351.25,20.5 L351.25,18.3594 L359.9844,18.3594 L359.9844,20.5 L356.8438,20.5 L356.8438,30.75 Z "/><text fill="#000000" font-family="sans-serif" font-size="12" lengthAdjust="spacingAndGlyphs" textLength="162" x="370" y="28.1543">facebook_ingresso_eventi</text><line style="stroke: #2688D4; stroke-width: 1.5;" x1="342" x2="534" y1="40" y2="40"/><path d="M353.0417,46.7214 C351.7767,46.7214 350.75,47.748 350.75,49.013 C350.75,49.1597 350.7803,49.2853 350.8078,49.4145 L348,52.2223 L348,54.0556 L350.75,54.0556 L350.75,52.2223 L352.5833,52.2223 L352.5833,51.3056 L352.6411,51.2479 C352.7694,51.2754 352.895,51.3056 353.0426,51.3056 C354.3076,51.3056 355.3343,50.2789 355.3343,49.0139 C355.3343,47.7489 354.3076,46.7223 353.0426,46.7223 M353.5009,47.6389 C354.0051,47.6389 354.4176,48.0514 354.4176,48.5556 C354.4176,49.0598 354.0051,49.4723 353.5009,49.4723 C352.9968,49.4723 352.5843,49.0598 352.5843,48.5556 C352.5843,48.0514 352.9968,47.6389 353.5009,47.6389 " fill="#AAAAAA" style="stroke: ; stroke-width: 0.0; stroke-dasharray: ;"/><text fill="#000000" font-family="sans-serif" font-size="11" lengthAdjust="spacingAndGlyphs" textLength="127" x="360.3333" y="54.2104">persona_id   :INTEGER</text><path d="M351.6667,60.4427 C350.1478,60.4427 348.9167,61.6738 348.9167,63.1927 C348.9167,64.7116 350.1478,65.9427 351.6667,65.9427 C353.1856,65.9427 354.4167,64.7116 354.4167,63.1927 C354.4167,61.6738 353.1856,60.4427 351.6667,60.4427 " fill="#EFEFEF" style="stroke: ; stroke-width: 0.0; stroke-dasharray: ;"/><text fill="#000000" font-family="sans-serif" font-size="11" lengthAdjust="spacingAndGlyphs" textLength="118" x="360.3333" y="67.0151">evento_id   :INTEGER</text><path d="M351.6667,73.2474 C350.1478,73.2474 348.9167,74.4785 348.9167,75.9974 C348.9167,77.5163 350.1478,78.7474 351.6667,78.7474 C353.1856,78.7474 354.4167,77.5163 354.4167,75.9974 C354.4167,74.4785 353.1856,73.2474 351.6667,73.2474 " fill="#EFEFEF" style="stroke: ; stroke-width: 0.0; stroke-dasharray: ;"/><text fill="#000000" font-family="sans-serif" font-size="11" lengthAdjust="spacingAndGlyphs" textLength="120" x="360.3333" y="79.8198">nome_evento   :TEXT</text><path d="M351.6667,86.0521 C350.1478,86.0521 348.9167,87.2832 348.9167,88.8021 C348.9167,90.321 350.1478,91.5521 351.6667,91.5521 C353.1856,91.5521 354.4167,90.321 354.4167,88.8021 C354.4167,87.2832 353.1856,86.0521 351.6667,86.0521 " fill="#EFEFEF" style="stroke: ; stroke-width: 0.0; stroke-dasharray: ;"/><text fill="#000000" font-family="sans-serif" font-size="11" lengthAdjust="spacingAndGlyphs" textLength="89" x="360.3333" y="92.6245">data   :INTEGER</text><line style="stroke: #2688D4; stroke-width: 1.5;" x1="342" x2="534" y1="99.2188" y2="99.2188"/><!--class interrogatorio--><rect fill="#FFFFFF" height="73.6094" id="interrogatorio" rx="2.5" ry="2.5" style="stroke: #2688D4; stroke-width: 1.5;" width="152.3333" x="362" y="142.5"/><ellipse cx="392" cy="158.5" fill="#FFFFFF" rx="11" ry="11" style="stroke: #2688D4; stroke-width: 1.0;"/><path d="M392.8438,165.25 L390.3906,165.25 L390.3906,155 L387.25,155 L387.25,152.8594 L395.9844,152.8594 L395.9844,155 L392.8438,155 L392.8438,165.25 Z "/><text fill="#000000" font-family="sans-serif" font-size="12" lengthAdjust="spacingAndGlyphs" textLength="87" x="409.3333" y="162.6543">interrogatorio</text><line style="stroke: #2688D4; stroke-width: 1.5;" x1="363" x2="513.3333" y1="174.5" y2="174.5"/><path d="M374.0417,181.2214 C372.7767,181.2214 371.75,182.248 371.75,183.513 C371.75,183.6597 371.7803,183.7853 371.8078,183.9145 L369,186.7223 L369,188.5556 L371.75,188.5556 L371.75,186.7223 L373.5833,186.7223 L373.5833,185.8056 L373.6411,185.7479 C373.7694,185.7754 373.895,185.8056 374.0426,185.8056 C375.3076,185.8056 376.3343,184.7789 376.3343,183.5139 C376.3343,182.2489 375.3076,181.2223 374.0426,181.2223 M374.5009,182.1389 C375.0051,182.1389 375.4176,182.5514 375.4176,183.0556 C375.4176,183.5598 375.0051,183.9723 374.5009,183.9723 C373.9968,183.9723 373.5843,183.5598 373.5843,183.0556 C373.5843,182.5514 373.9968,182.1389 374.5009,182.1389 " fill="#AAAAAA" style="stroke: ; stroke-width: 0.0; stroke-dasharray: ;"/><text fill="#000000" font-family="sans-serif" font-size="11" lengthAdjust="spacingAndGlyphs" textLength="127" x="381.3333" y="188.7104">persona_id   :INTEGER</text><path d="M372.6667,194.9427 C371.1478,194.9427 369.9167,196.1738 369.9167,197.6927 C369.9167,199.2116 371.1478,200.4427 372.6667,200.4427 C374.1856,200.4427 375.4167,199.2116 375.4167,197.6927 C375.4167,196.1738 374.1856,194.9427 372.6667,194.9427 " fill="#EFEFEF" style="stroke: ; stroke-width: 0.0; stroke-dasharray: ;"/><text fill="#000000" font-family="sans-serif" font-size="11" lengthAdjust="spacingAndGlyphs" textLength="110" x="381.3333" y="201.5151">trascrizione   :TEXT</text><line style="stroke: #2688D4; stroke-width: 1.5;" x1="363" x2="513.3333" y1="208.1094" y2="208.1094"/><!--class get_fit_now_iscrizione--><rect fill="#FFFFFF" height="112.0234" id="get_fit_now_iscrizione" rx="2.5" ry="2.5" style="stroke: #2688D4; stroke-width: 1.5;" width="173.3333" x="351.5" y="251.5"/><ellipse cx="370.25" cy="267.5" fill="#FFFFFF" rx="11" ry="11" style="stroke: #2688D4; stroke-width: 1.0;"/><path d="M371.0938,274.25 L368.6406,274.25 L368.6406,264 L365.5,264 L365.5,261.8594 L374.2344,261.8594 L374.2344,264 L371.0938,264 L371.0938,274.25 Z "/><text fill="#000000" font-family="sans-serif" font-size="12" lengthAdjust="spacingAndGlyphs" textLength="133" x="385.0833" y="271.6543">get_fit_now_iscrizione</text><line style="stroke: #2688D4; stroke-width: 1.5;" x1="352.5" x2="523.8333" y1="283.5" y2="283.5"/><path d="M363.5417,290.2214 C362.2767,290.2214 361.25,291.248 361.25,292.513 C361.25,292.6597 361.2803,292.7853 361.3078,292.9145 L358.5,295.7223 L358.5,297.5556 L361.25,297.5556 L361.25,295.7223 L363.0833,295.7223 L363.0833,294.8056 L363.1411,294.7479 C363.2694,294.7754 363.395,294.8056 363.5426,294.8056 C364.8076,294.8056 365.8343,293.7789 365.8343,292.5139 C365.8343,291.2489 364.8076,290.2223 363.5426,290.2223 M364.0009,291.1389 C364.5051,291.1389 364.9176,291.5514 364.9176,292.0556 C364.9176,292.5598 364.5051,292.9723 364.0009,292.9723 C363.4968,292.9723 363.0843,292.5598 363.0843,292.0556 C363.0843,291.5514 363.4968,291.1389 364.0009,291.1389 " fill="#B8861B" style="stroke: ; stroke-width: 0.0; stroke-dasharray: ;"/><text fill="#000000" font-family="sans-serif" font-size="11" font-weight="bold" lengthAdjust="spacingAndGlyphs" textLength="12" x="370.8333" y="297.7104">id</text><text fill="#000000" font-family="sans-serif" font-size="11" lengthAdjust="spacingAndGlyphs" textLength="32" x="394.8333" y="297.7104">:TEXT</text><path d="M363.5417,303.026 C362.2767,303.026 361.25,304.0527 361.25,305.3177 C361.25,305.4644 361.2803,305.59 361.3078,305.7192 L358.5,308.527 L358.5,310.3603 L361.25,310.3603 L361.25,308.527 L363.0833,308.527 L363.0833,307.6103 L363.1411,307.5525 C363.2694,307.58 363.395,307.6103 363.5426,307.6103 C364.8076,307.6103 365.8343,306.5836 365.8343,305.3186 C365.8343,304.0536 364.8076,303.027 363.5426,303.027 M364.0009,303.9436 C364.5051,303.9436 364.9176,304.3561 364.9176,304.8603 C364.9176,305.3645 364.5051,305.777 364.0009,305.777 C363.4968,305.777 363.0843,305.3645 363.0843,304.8603 C363.0843,304.3561 363.4968,303.9436 364.0009,303.9436 " fill="#AAAAAA" style="stroke: ; stroke-width: 0.0; stroke-dasharray: ;"/><text fill="#000000" font-family="sans-serif" font-size="11" lengthAdjust="spacingAndGlyphs" textLength="127" x="370.8333" y="310.5151">persona_id   :INTEGER</text><path d="M362.1667,316.7474 C360.6478,316.7474 359.4167,317.9785 359.4167,319.4974 C359.4167,321.0163 360.6478,322.2474 362.1667,322.2474 C363.6856,322.2474 364.9167,321.0163 364.9167,319.4974 C364.9167,317.9785 363.6856,316.7474 362.1667,316.7474 " fill="#EFEFEF" style="stroke: ; stroke-width: 0.0; stroke-dasharray: ;"/><text fill="#000000" font-family="sans-serif" font-size="11" lengthAdjust="spacingAndGlyphs" textLength="76" x="370.8333" y="323.3198">nome   :TEXT</text><path d="M362.1667,329.5521 C360.6478,329.5521 359.4167,330.7832 359.4167,332.3021 C359.4167,333.821 360.6478,335.0521 362.1667,335.0521 C363.6856,335.0521 364.9167,333.821 364.9167,332.3021 C364.9167,330.7832 363.6856,329.5521 362.1667,329.5521 " fill="#EFEFEF" style="stroke: ; stroke-width: 0.0; stroke-dasharray: ;"/><text fill="#000000" font-family="sans-serif" font-size="11" lengthAdjust="spacingAndGlyphs" textLength="148" x="370.8333" y="336.1245">data_iscrizione   :INTEGER</text><path d="M362.1667,342.3568 C360.6478,342.3568 359.4167,343.5879 359.4167,345.1068 C359.4167,346.6257 360.6478,347.8568 362.1667,347.8568 C363.6856,347.8568 364.9167,346.6257 364.9167,345.1068 C364.9167,343.5879 363.6856,342.3568 362.1667,342.3568 " fill="#EFEFEF" style="stroke: ; stroke-width: 0.0; stroke-dasharray: ;"/><text fill="#000000" font-family="sans-serif" font-size="11" lengthAdjust="spacingAndGlyphs" textLength="124" x="370.8333" y="348.9292">tipo_iscrizione   :TEXT</text><line style="stroke: #2688D4; stroke-width: 1.5;" x1="352.5" x2="523.8333" y1="355.5234" y2="355.5234"/><!--class get_fit_now_ingresso--><rect fill="#FFFFFF" height="99.2188" id="get_fit_now_ingresso" rx="2.5" ry="2.5" style="stroke: #2688D4; stroke-width: 1.5;" width="170.3333" x="24.5" y="258"/><ellipse cx="43.25" cy="274" fill="#FFFFFF" rx="11" ry="11" style="stroke: #2688D4; stroke-width: 1.0;"/><path d="M44.0938,280.75 L41.6406,280.75 L41.6406,270.5 L38.5,270.5 L38.5,268.3594 L47.2344,268.3594 L47.2344,270.5 L44.0938,270.5 L44.0938,280.75 Z "/><text fill="#000000" font-family="sans-serif" font-size="12" lengthAdjust="spacingAndGlyphs" textLength="130" x="58.0833" y="278.1543">get_fit_now_ingresso</text><line style="stroke: #2688D4; stroke-width: 1.5;" x1="25.5" x2="193.8333" y1="290" y2="290"/><path d="M36.5417,296.7214 C35.2767,296.7214 34.25,297.748 34.25,299.013 C34.25,299.1597 34.2803,299.2853 34.3078,299.4145 L31.5,302.2223 L31.5,304.0556 L34.25,304.0556 L34.25,302.2223 L36.0833,302.2223 L36.0833,301.3056 L36.1411,301.2479 C36.2694,301.2754 36.395,301.3056 36.5426,301.3056 C37.8076,301.3056 38.8343,300.2789 38.8343,299.0139 C38.8343,297.7489 37.8076,296.7223 36.5426,296.7223 M37.0009,297.6389 C37.5051,297.6389 37.9176,298.0514 37.9176,298.5556 C37.9176,299.0598 37.5051,299.4723 37.0009,299.4723 C36.4968,299.4723 36.0843,299.0598 36.0843,298.5556 C36.0843,298.0514 36.4968,297.6389 37.0009,297.6389 " fill="#AAAAAA" style="stroke: ; stroke-width: 0.0; stroke-dasharray: ;"/><text fill="#000000" font-family="sans-serif" font-size="11" lengthAdjust="spacingAndGlyphs" textLength="104" x="43.8333" y="304.2104">tessera_id   :TEXT</text><path d="M35.1667,310.4427 C33.6478,310.4427 32.4167,311.6738 32.4167,313.1927 C32.4167,314.7116 33.6478,315.9427 35.1667,315.9427 C36.6856,315.9427 37.9167,314.7116 37.9167,313.1927 C37.9167,311.6738 36.6856,310.4427 35.1667,310.4427 " fill="#EFEFEF" style="stroke: ; stroke-width: 0.0; stroke-dasharray: ;"/><text fill="#000000" font-family="sans-serif" font-size="11" lengthAdjust="spacingAndGlyphs" textLength="145" x="43.8333" y="317.0151">data_ingresso   :INTEGER</text><path d="M35.1667,323.2474 C33.6478,323.2474 32.4167,324.4785 32.4167,325.9974 C32.4167,327.5163 33.6478,328.7474 35.1667,328.7474 C36.6856,328.7474 37.9167,327.5163 37.9167,325.9974 C37.9167,324.4785 36.6856,323.2474 35.1667,323.2474 " fill="#EFEFEF" style="stroke: ; stroke-width: 0.0; stroke-dasharray: ;"/><text fill="#000000" font-family="sans-serif" font-size="11" lengthAdjust="spacingAndGlyphs" textLength="139" x="43.8333" y="329.8198">ora_ingresso   :INTEGER</text><path d="M35.1667,336.0521 C33.6478,336.0521 32.4167,337.2832 32.4167,338.8021 C32.4167,340.321 33.6478,341.5521 35.1667,341.5521 C36.6856,341.5521 37.9167,340.321 37.9167,338.8021 C37.9167,337.2832 36.6856,336.0521 35.1667,336.0521 " fill="#EFEFEF" style="stroke: ; stroke-width: 0.0; stroke-dasharray: ;"/><text fill="#000000" font-family="sans-serif" font-size="11" lengthAdjust="spacingAndGlyphs" textLength="123" x="43.8333" y="342.6245">ora_uscita   :INTEGER</text><line style="stroke: #2688D4; stroke-width: 1.5;" x1="25.5" x2="193.8333" y1="349.2188" y2="349.2188"/><!--class soluzione--><rect fill="#FFFFFF" height="73.6094" id="soluzione" rx="2.5" ry="2.5" style="stroke: #2688D4; stroke-width: 1.5;" width="125.3333" x="47" y="148.5"/><ellipse cx="77.9" cy="164.5" fill="#FFFFFF" rx="11" ry="11" style="stroke: #2688D4; stroke-width: 1.0;"/><path d="M78.7438,171.25 L76.2906,171.25 L76.2906,161 L73.15,161 L73.15,158.8594 L81.8844,158.8594 L81.8844,161 L78.7438,161 L78.7438,171.25 Z "/><text fill="#000000" font-family="sans-serif" font-size="12" lengthAdjust="spacingAndGlyphs" textLength="58" x="95.4333" y="168.6543">soluzione</text><line style="stroke: #2688D4; stroke-width: 1.5;" x1="48" x2="171.3333" y1="180.5" y2="180.5"/><path d="M57.6667,188.138 C56.1478,188.138 54.9167,189.3691 54.9167,190.888 C54.9167,192.4069 56.1478,193.638 57.6667,193.638 C59.1856,193.638 60.4167,192.4069 60.4167,190.888 C60.4167,189.3691 59.1856,188.138 57.6667,188.138 " fill="#EFEFEF" style="stroke: ; stroke-width: 0.0; stroke-dasharray: ;"/><text fill="#000000" font-family="sans-serif" font-size="11" lengthAdjust="spacingAndGlyphs" textLength="100" x="66.3333" y="194.7104">utente   :INTEGER</text><path d="M57.6667,200.9427 C56.1478,200.9427 54.9167,202.1738 54.9167,203.6927 C54.9167,205.2116 56.1478,206.4427 57.6667,206.4427 C59.1856,206.4427 60.4167,205.2116 60.4167,203.6927 C60.4167,202.1738 59.1856,200.9427 57.6667,200.9427 " fill="#EFEFEF" style="stroke: ; stroke-width: 0.0; stroke-dasharray: ;"/><text fill="#000000" font-family="sans-serif" font-size="11" lengthAdjust="spacingAndGlyphs" textLength="79" x="66.3333" y="207.5151">valore   :TEXT</text><line style="stroke: #2688D4; stroke-width: 1.5;" x1="48" x2="171.3333" y1="214.1094" y2="214.1094"/><!--class reddito--><rect fill="#FFFFFF" height="73.6094" id="reddito" rx="2.5" ry="2.5" style="stroke: #2688D4; stroke-width: 1.5;" width="170.3333" x="990.5" y="219.5"/><ellipse cx="1048.9167" cy="235.5" fill="#FFFFFF" rx="11" ry="11" style="stroke: #2688D4; stroke-width: 1.0;"/><path d="M1049.7604,242.25 L1047.3073,242.25 L1047.3073,232 L1044.1667,232 L1044.1667,229.8594 L1052.901,229.8594 L1052.901,232 L1049.7604,232 L1049.7604,242.25 Z "/><text fill="#000000" font-family="sans-serif" font-size="12" lengthAdjust="spacingAndGlyphs" textLength="45" x="1069.4167" y="239.6543">reddito</text><line style="stroke: #2688D4; stroke-width: 1.5;" x1="991.5" x2="1159.8333" y1="251.5" y2="251.5"/><path d="M1002.5417,258.2214 C1001.2767,258.2214 1000.25,259.248 1000.25,260.513 C1000.25,260.6597 1000.2803,260.7853 1000.3078,260.9145 L997.5,263.7223 L997.5,265.5556 L1000.25,265.5556 L1000.25,263.7223 L1002.0833,263.7223 L1002.0833,262.8056 L1002.1411,262.7479 C1002.2694,262.7754 1002.395,262.8056 1002.5426,262.8056 C1003.8076,262.8056 1004.8343,261.7789 1004.8343,260.5139 C1004.8343,259.2489 1003.8076,258.2223 1002.5426,258.2223 M1003.0009,259.1389 C1003.5051,259.1389 1003.9176,259.5514 1003.9176,260.0556 C1003.9176,260.5598 1003.5051,260.9723 1003.0009,260.9723 C1002.4968,260.9723 1002.0843,260.5598 1002.0843,260.0556 C1002.0843,259.5514 1002.4968,259.1389 1003.0009,259.1389 " fill="#B8861B" style="stroke: ; stroke-width: 0.0; stroke-dasharray: ;"/><text fill="#000000" font-family="sans-serif" font-size="11" font-weight="bold" lengthAdjust="spacingAndGlyphs" textLength="91" x="1009.8333" y="265.7104">codice_fiscale</text><text fill="#000000" font-family="sans-serif" font-size="11" lengthAdjust="spacingAndGlyphs" textLength="34" x="1112.8333" y="265.7104">:CHAR</text><path d="M1001.1667,271.9427 C999.6478,271.9427 998.4167,273.1738 998.4167,274.6927 C998.4167,276.2116 999.6478,277.4427 1001.1667,277.4427 C1002.6856,277.4427 1003.9167,276.2116 1003.9167,274.6927 C1003.9167,273.1738 1002.6856,271.9427 1001.1667,271.9427 " fill="#EFEFEF" style="stroke: ; stroke-width: 0.0; stroke-dasharray: ;"/><text fill="#000000" font-family="sans-serif" font-size="11" lengthAdjust="spacingAndGlyphs" textLength="145" x="1009.8333" y="278.5151">reddito_annuo   :INTEGER</text><line style="stroke: #2688D4; stroke-width: 1.5;" x1="991.5" x2="1159.8333" y1="285.1094" y2="285.1094"/><!--class persona--><rect fill="#FFFFFF" height="124.8281" id="persona" rx="2.5" ry="2.5" style="stroke: #2688D4; stroke-width: 1.5;" width="170.3333" x="667" y="117"/><ellipse cx="721.9167" cy="133" fill="#FFFFFF" rx="11" ry="11" style="stroke: #2688D4; stroke-width: 1.0;"/><path d="M722.7604,139.75 L720.3073,139.75 L720.3073,129.5 L717.1667,129.5 L717.1667,127.3594 L725.901,127.3594 L725.901,129.5 L722.7604,129.5 L722.7604,139.75 Z "/><text fill="#000000" font-family="sans-serif" font-size="12" lengthAdjust="spacingAndGlyphs" textLength="52" x="742.4167" y="137.1543">persona</text><line style="stroke: #2688D4; stroke-width: 1.5;" x1="668" x2="836.3333" y1="149" y2="149"/><path d="M679.0417,155.7214 C677.7767,155.7214 676.75,156.748 676.75,158.013 C676.75,158.1597 676.7803,158.2853 676.8078,158.4145 L674,161.2223 L674,163.0556 L676.75,163.0556 L676.75,161.2223 L678.5833,161.2223 L678.5833,160.3056 L678.6411,160.2479 C678.7694,160.2754 678.895,160.3056 679.0426,160.3056 C680.3076,160.3056 681.3343,159.2789 681.3343,158.0139 C681.3343,156.7489 680.3076,155.7223 679.0426,155.7223 M679.5009,156.6389 C680.0051,156.6389 680.4176,157.0514 680.4176,157.5556 C680.4176,158.0598 680.0051,158.4723 679.5009,158.4723 C678.9968,158.4723 678.5843,158.0598 678.5843,157.5556 C678.5843,157.0514 678.9968,156.6389 679.5009,156.6389 " fill="#B8861B" style="stroke: ; stroke-width: 0.0; stroke-dasharray: ;"/><text fill="#000000" font-family="sans-serif" font-size="11" font-weight="bold" lengthAdjust="spacingAndGlyphs" textLength="12" x="686.3333" y="163.2104">id</text><text fill="#000000" font-family="sans-serif" font-size="11" lengthAdjust="spacingAndGlyphs" textLength="52" x="710.3333" y="163.2104">:INTEGER</text><path d="M677.6667,169.4427 C676.1478,169.4427 674.9167,170.6738 674.9167,172.1927 C674.9167,173.7116 676.1478,174.9427 677.6667,174.9427 C679.1856,174.9427 680.4167,173.7116 680.4167,172.1927 C680.4167,170.6738 679.1856,169.4427 677.6667,169.4427 " fill="#EFEFEF" style="stroke: ; stroke-width: 0.0; stroke-dasharray: ;"/><text fill="#000000" font-family="sans-serif" font-size="11" lengthAdjust="spacingAndGlyphs" textLength="76" x="686.3333" y="176.0151">nome   :TEXT</text><path d="M679.0417,181.3307 C677.7767,181.3307 676.75,182.3574 676.75,183.6224 C676.75,183.7691 676.7803,183.8946 676.8078,184.0239 L674,186.8316 L674,188.665 L676.75,188.665 L676.75,186.8316 L678.5833,186.8316 L678.5833,185.915 L678.6411,185.8572 C678.7694,185.8847 678.895,185.915 679.0426,185.915 C680.3076,185.915 681.3343,184.8883 681.3343,183.6233 C681.3343,182.3583 680.3076,181.3316 679.0426,181.3316 M679.5009,182.2483 C680.0051,182.2483 680.4176,182.6608 680.4176,183.165 C680.4176,183.6691 680.0051,184.0816 679.5009,184.0816 C678.9968,184.0816 678.5843,183.6691 678.5843,183.165 C678.5843,182.6608 678.9968,182.2483 679.5009,182.2483 " fill="#AAAAAA" style="stroke: ; stroke-width: 0.0; stroke-dasharray: ;"/><text fill="#000000" font-family="sans-serif" font-size="11" lengthAdjust="spacingAndGlyphs" textLength="123" x="686.3333" y="188.8198">patente_id   :INTEGER</text><path d="M677.6667,195.0521 C676.1478,195.0521 674.9167,196.2832 674.9167,197.8021 C674.9167,199.321 676.1478,200.5521 677.6667,200.5521 C679.1856,200.5521 680.4167,199.321 680.4167,197.8021 C680.4167,196.2832 679.1856,195.0521 677.6667,195.0521 " fill="#EFEFEF" style="stroke: ; stroke-width: 0.0; stroke-dasharray: ;"/><text fill="#000000" font-family="sans-serif" font-size="11" lengthAdjust="spacingAndGlyphs" textLength="145" x="686.3333" y="201.6245">numero_civico   :INTEGER</text><path d="M677.6667,207.8568 C676.1478,207.8568 674.9167,209.0879 674.9167,210.6068 C674.9167,212.1257 676.1478,213.3568 677.6667,213.3568 C679.1856,213.3568 680.4167,212.1257 680.4167,210.6068 C680.4167,209.0879 679.1856,207.8568 677.6667,207.8568 " fill="#EFEFEF" style="stroke: ; stroke-width: 0.0; stroke-dasharray: ;"/><text fill="#000000" font-family="sans-serif" font-size="11" lengthAdjust="spacingAndGlyphs" textLength="89" x="686.3333" y="214.4292">indirizzo   :TEXT</text><path d="M679.0417,219.7448 C677.7767,219.7448 676.75,220.7715 676.75,222.0365 C676.75,222.1831 676.7803,222.3087 676.8078,222.438 L674,225.2457 L674,227.079 L676.75,227.079 L676.75,225.2457 L678.5833,225.2457 L678.5833,224.329 L678.6411,224.2713 C678.7694,224.2988 678.895,224.329 679.0426,224.329 C680.3076,224.329 681.3343,223.3024 681.3343,222.0374 C681.3343,220.7724 680.3076,219.7457 679.0426,219.7457 M679.5009,220.6624 C680.0051,220.6624 680.4176,221.0749 680.4176,221.579 C680.4176,222.0832 680.0051,222.4957 679.5009,222.4957 C678.9968,222.4957 678.5843,222.0832 678.5843,221.579 C678.5843,221.0749 678.9968,220.6624 679.5009,220.6624 " fill="#AAAAAA" style="stroke: ; stroke-width: 0.0; stroke-dasharray: ;"/><text fill="#000000" font-family="sans-serif" font-size="11" lengthAdjust="spacingAndGlyphs" textLength="125" x="686.3333" y="227.2339">codice_fiscale   :CHAR</text><line style="stroke: #2688D4; stroke-width: 1.5;" x1="668" x2="836.3333" y1="233.8281" y2="233.8281"/><!--link facebook_ingresso_eventi to persona--><path d="M530,115.29 C530,115.29 530,129.75 530,129.75 C530,129.75 658.8,129.75 658.8,129.75 " fill="none" id="facebook_ingresso_eventi-persona" style="stroke: #2688D4; stroke-width: 1.0;"/><line style="stroke: #2688D4; stroke-width: 1.0;" x1="662.8" x2="662.8" y1="125.75" y2="133.75"/><line style="stroke: #2688D4; stroke-width: 1.0;" x1="659.8" x2="659.8" y1="125.75" y2="133.75"/><line style="stroke: #2688D4; stroke-width: 1.0;" x1="658.8" x2="666.8" y1="129.75" y2="129.75"/><line style="stroke: #2688D4; stroke-width: 1.0;" x1="530" x2="524" y1="115.29" y2="107.29"/><line style="stroke: #2688D4; stroke-width: 1.0;" x1="530" x2="536" y1="115.29" y2="107.29"/><line style="stroke: #2688D4; stroke-width: 1.0;" x1="530" x2="530" y1="115.29" y2="107.29"/><ellipse cx="530" cy="121.29" fill="none" rx="4" ry="4" style="stroke: #2688D4; stroke-width: 1.0;"/><text fill="#000000" font-family="sans-serif" font-size="13" lengthAdjust="spacingAndGlyphs" textLength="70" x="566" y="53.5669">persona_id</text><!--link interrogatorio to persona--><path d="M522.01,179.5 C522.01,179.5 658.73,179.5 658.73,179.5 " fill="none" id="interrogatorio-persona" style="stroke: #2688D4; stroke-width: 1.0;"/><line style="stroke: #2688D4; stroke-width: 1.0;" x1="662.73" x2="662.73" y1="175.5" y2="183.5"/><line style="stroke: #2688D4; stroke-width: 1.0;" x1="659.73" x2="659.73" y1="175.5" y2="183.5"/><line style="stroke: #2688D4; stroke-width: 1.0;" x1="658.73" x2="666.73" y1="179.5" y2="179.5"/><line style="stroke: #2688D4; stroke-width: 1.0;" x1="522.01" x2="514.01" y1="179.5" y2="185.5"/><line style="stroke: #2688D4; stroke-width: 1.0;" x1="522.01" x2="514.01" y1="179.5" y2="173.5"/><line style="stroke: #2688D4; stroke-width: 1.0;" x1="522.01" x2="514.01" y1="179.5" y2="179.5"/><ellipse cx="528.01" cy="179.5" fill="none" rx="4" ry="4" style="stroke: #2688D4; stroke-width: 1.0;"/><text fill="#000000" font-family="sans-serif" font-size="13" lengthAdjust="spacingAndGlyphs" textLength="70" x="566" y="175.5669">persona_id</text><!--link get_fit_now_iscrizione to persona--><path d="M520,243.24 C520,243.24 520,232.25 520,232.25 C520,232.25 658.93,232.25 658.93,232.25 " fill="none" id="get_fit_now_iscrizione-persona" style="stroke: #2688D4; stroke-width: 1.0;"/><line style="stroke: #2688D4; stroke-width: 1.0;" x1="662.93" x2="662.93" y1="228.25" y2="236.25"/><line style="stroke: #2688D4; stroke-width: 1.0;" x1="659.93" x2="659.93" y1="228.25" y2="236.25"/><line style="stroke: #2688D4; stroke-width: 1.0;" x1="658.93" x2="666.93" y1="232.25" y2="232.25"/><line style="stroke: #2688D4; stroke-width: 1.0;" x1="520" x2="526" y1="243.24" y2="251.24"/><line style="stroke: #2688D4; stroke-width: 1.0;" x1="520" x2="514" y1="243.24" y2="251.24"/><line style="stroke: #2688D4; stroke-width: 1.0;" x1="520" x2="520" y1="243.24" y2="251.24"/><ellipse cx="520" cy="237.24" fill="none" rx="4" ry="4" style="stroke: #2688D4; stroke-width: 1.0;"/><text fill="#000000" font-family="sans-serif" font-size="13" lengthAdjust="spacingAndGlyphs" textLength="70" x="566" y="267.5669">persona_id</text><!--link get_fit_now_ingresso to get_fit_now_iscrizione--><path d="M202.52,307.5 C202.52,307.5 343.33,307.5 343.33,307.5 " fill="none" id="get_fit_now_ingresso-get_fit_now_iscrizione" style="stroke: #2688D4; stroke-width: 1.0;"/><line style="stroke: #2688D4; stroke-width: 1.0;" x1="347.33" x2="347.33" y1="303.5" y2="311.5"/><line style="stroke: #2688D4; stroke-width: 1.0;" x1="344.33" x2="344.33" y1="303.5" y2="311.5"/><line style="stroke: #2688D4; stroke-width: 1.0;" x1="343.33" x2="351.33" y1="307.5" y2="307.5"/><line style="stroke: #2688D4; stroke-width: 1.0;" x1="202.52" x2="194.52" y1="307.5" y2="313.5"/><line style="stroke: #2688D4; stroke-width: 1.0;" x1="202.52" x2="194.52" y1="307.5" y2="301.5"/><line style="stroke: #2688D4; stroke-width: 1.0;" x1="202.52" x2="194.52" y1="307.5" y2="307.5"/><ellipse cx="208.52" cy="307.5" fill="none" rx="4" ry="4" style="stroke: #2688D4; stroke-width: 1.0;"/><text fill="#000000" font-family="sans-serif" font-size="13" lengthAdjust="spacingAndGlyphs" textLength="66" x="244" y="303.5669">tessera_id</text><!--link persona to reddito--><path d="M845.42,230.75 C845.42,230.75 982.44,230.75 982.44,230.75 " fill="none" id="persona-reddito" style="stroke: #2688D4; stroke-width: 1.0;"/><line style="stroke: #2688D4; stroke-width: 1.0;" x1="986.44" x2="986.44" y1="226.75" y2="234.75"/><line style="stroke: #2688D4; stroke-width: 1.0;" x1="983.44" x2="983.44" y1="226.75" y2="234.75"/><line style="stroke: #2688D4; stroke-width: 1.0;" x1="982.44" x2="990.44" y1="230.75" y2="230.75"/><line style="stroke: #2688D4; stroke-width: 1.0;" x1="845.42" x2="837.42" y1="230.75" y2="236.75"/><line style="stroke: #2688D4; stroke-width: 1.0;" x1="845.42" x2="837.42" y1="230.75" y2="224.75"/><line style="stroke: #2688D4; stroke-width: 1.0;" x1="845.42" x2="837.42" y1="230.75" y2="230.75"/><ellipse cx="851.42" cy="230.75" fill="none" rx="4" ry="4" style="stroke: #2688D4; stroke-width: 1.0;"/><text fill="#000000" font-family="sans-serif" font-size="13" lengthAdjust="spacingAndGlyphs" textLength="88" x="868" y="252.5669">codice_fiscale</text><!--link persona to patente--><path d="M845.42,150.5 C845.42,150.5 978.78,150.5 978.78,150.5 " fill="none" id="persona-patente" style="stroke: #2688D4; stroke-width: 1.0;"/><line style="stroke: #2688D4; stroke-width: 1.0;" x1="982.78" x2="982.78" y1="146.5" y2="154.5"/><line style="stroke: #2688D4; stroke-width: 1.0;" x1="979.78" x2="979.78" y1="146.5" y2="154.5"/><line style="stroke: #2688D4; stroke-width: 1.0;" x1="978.78" x2="986.78" y1="150.5" y2="150.5"/><line style="stroke: #2688D4; stroke-width: 1.0;" x1="845.42" x2="837.42" y1="150.5" y2="156.5"/><line style="stroke: #2688D4; stroke-width: 1.0;" x1="845.42" x2="837.42" y1="150.5" y2="144.5"/><line style="stroke: #2688D4; stroke-width: 1.0;" x1="845.42" x2="837.42" y1="150.5" y2="150.5"/><ellipse cx="851.42" cy="150.5" fill="none" rx="4" ry="4" style="stroke: #2688D4; stroke-width: 1.0;"/><text fill="#000000" font-family="sans-serif" font-size="13" lengthAdjust="spacingAndGlyphs" textLength="68" x="878" y="98.5669">patente_id</text><!--
@startuml
left to right direction
skinparam roundcorner 5
skinparam linetype ortho
skinparam shadowing false
skinparam handwritten false
skinparam class {
    BackgroundColor white
    ArrowColor #2688d4
    BorderColor #2688d4
}

entity rapporto_scena_del_crimine  << (T, white) >> {
   <color:#efefef><&media-record></color> data   :INTEGER 
   <color:#efefef><&media-record></color> tipo   :TEXT 
   <color:#efefef><&media-record></color> descrizione   :TEXT 
   <color:#efefef><&media-record></color> luogo   :TEXT 
 }


entity patente  << (T, white) >> {
   <b><color:#b8861b><&key></color> id </b>  :INTEGER 
   <color:#efefef><&media-record></color> eta   :INTEGER 
   <color:#efefef><&media-record></color> altezza   :INTEGER 
   <color:#efefef><&media-record></color> colore_occhi   :TEXT 
   <color:#efefef><&media-record></color> colore_capelli   :TEXT 
   <color:#efefef><&media-record></color> sesso   :TEXT 
   <color:#efefef><&media-record></color> targa   :TEXT 
   <color:#efefef><&media-record></color> costruttore_veicolo   :TEXT 
   <color:#efefef><&media-record></color> modello_veicolo   :TEXT 
 }


entity facebook_ingresso_eventi  << (T, white) >> {
   <color:#aaaaaa><&key></color> persona_id   :INTEGER 
   <color:#efefef><&media-record></color> evento_id   :INTEGER 
   <color:#efefef><&media-record></color> nome_evento   :TEXT 
   <color:#efefef><&media-record></color> data   :INTEGER 
 }


entity interrogatorio  << (T, white) >> {
   <color:#aaaaaa><&key></color> persona_id   :INTEGER 
   <color:#efefef><&media-record></color> trascrizione   :TEXT 
 }


entity get_fit_now_iscrizione  << (T, white) >> {
   <b><color:#b8861b><&key></color> id </b>  :TEXT 
   <color:#aaaaaa><&key></color> persona_id   :INTEGER 
   <color:#efefef><&media-record></color> nome   :TEXT 
   <color:#efefef><&media-record></color> data_iscrizione   :INTEGER 
   <color:#efefef><&media-record></color> tipo_iscrizione   :TEXT 
 }


entity get_fit_now_ingresso  << (T, white) >> {
   <color:#aaaaaa><&key></color> tessera_id   :TEXT 
   <color:#efefef><&media-record></color> data_ingresso   :INTEGER 
   <color:#efefef><&media-record></color> ora_ingresso   :INTEGER 
   <color:#efefef><&media-record></color> ora_uscita   :INTEGER 
 }


entity soluzione  << (T, white) >> {
   <color:#efefef><&media-record></color> utente   :INTEGER 
   <color:#efefef><&media-record></color> valore   :TEXT 
 }


entity reddito  << (T, white) >> {
   <b><color:#b8861b><&key></color> codice_fiscale </b>  :CHAR 
   <color:#efefef><&media-record></color> reddito_annuo   :INTEGER 
 }


entity persona  << (T, white) >> {
   <b><color:#b8861b><&key></color> id </b>  :INTEGER 
   <color:#efefef><&media-record></color> nome   :TEXT 
   <color:#aaaaaa><&key></color> patente_id   :INTEGER 
   <color:#efefef><&media-record></color> numero_civico   :INTEGER 
   <color:#efefef><&media-record></color> indirizzo   :TEXT 
   <color:#aaaaaa><&key></color> codice_fiscale   :CHAR 
 }


 facebook_ingresso_eventi }o- -|| persona : persona_id
 interrogatorio }o- -|| persona : persona_id
 get_fit_now_iscrizione }o- -|| persona : persona_id
 get_fit_now_ingresso }o- -|| get_fit_now_iscrizione : tessera_id
 persona }o- -|| reddito : codice_fiscale
 persona }o- -|| patente : patente_id

@enduml

PlantUML version 1.2019.06(Fri May 24 19:10:25 CEST 2019)
(GPL source distribution)
Java Runtime: OpenJDK Runtime Environment
JVM: OpenJDK 64-Bit Server VM
Java Version: 11.0.21+9-post-Ubuntu-0ubuntu122.04
Operating System: Linux
OS Version: 5.15.133.1-microsoft-standard-WSL2
Default Encoding: UTF-8
Language: en
Country: null
--></g></svg>